<svg id="wave" style="transform:rotate(180deg); transition: 0.3s" viewBox="0 0 1440 490"    fill="none" version="1.1" xmlns="http://www.w3.org/2000/svg"><defs><linearGradient id="sw-gradient-0" x1="0" x2="0" y1="1" y2="0"><stop stop-color="rgba(102.715, 62, 243, 1)" offset="0%"></stop><stop stop-color="rgba(159.414, 132.856, 74.15, 1)" offset="100%"></stop></linearGradient></defs><path style="transform:translate(0, 0px); opacity:1" fill="url(#sw-gradient-0)" d="M0,441L60,392C120,343,240,245,360,196C480,147,600,147,720,130.7C840,114,960,82,1080,57.2C1200,33,1320,16,1440,57.2C1560,98,1680,196,1800,196C1920,196,2040,98,2160,114.3C2280,131,2400,261,2520,269.5C2640,278,2760,163,2880,163.3C3000,163,3120,278,3240,318.5C3360,359,3480,327,3600,310.3C3720,294,3840,294,3960,261.3C4080,229,4200,163,4320,114.3C4440,65,4560,33,4680,57.2C4800,82,4920,163,5040,228.7C5160,294,5280,343,5400,302.2C5520,261,5640,131,5760,122.5C5880,114,6000,229,6120,228.7C6240,229,6360,114,6480,122.5C6600,131,6720,261,6840,261.3C6960,261,7080,131,7200,106.2C7320,82,7440,163,7560,187.8C7680,212,7800,180,7920,179.7C8040,180,8160,212,8280,187.8C8400,163,8520,82,8580,40.8L8640,0L8640,490L8580,490C8520,490,8400,490,8280,490C8160,490,8040,490,7920,490C7800,490,7680,490,7560,490C7440,490,7320,490,7200,490C7080,490,6960,490,6840,490C6720,490,6600,490,6480,490C6360,490,6240,490,6120,490C6000,490,5880,490,5760,490C5640,490,5520,490,5400,490C5280,490,5160,490,5040,490C4920,490,4800,490,4680,490C4560,490,4440,490,4320,490C4200,490,4080,490,3960,490C3840,490,3720,490,3600,490C3480,490,3360,490,3240,490C3120,490,3000,490,2880,490C2760,490,2640,490,2520,490C2400,490,2280,490,2160,490C2040,490,1920,490,1800,490C1680,490,1560,490,1440,490C1320,490,1200,490,1080,490C960,490,840,490,720,490C600,490,480,490,360,490C240,490,120,490,60,490L0,490Z"></path><defs><linearGradient id="sw-gradient-1" x1="0" x2="0" y1="1" y2="0"><stop stop-color="rgba(243, 106, 62, 1)" offset="0%"></stop><stop stop-color="rgba(255, 179, 11, 1)" offset="100%"></stop></linearGradient></defs><path style="transform:translate(0, 50px); opacity:0.9" fill="url(#sw-gradient-1)" d="M0,441L60,383.8C120,327,240,212,360,147C480,82,600,65,720,49C840,33,960,16,1080,32.7C1200,49,1320,98,1440,130.7C1560,163,1680,180,1800,196C1920,212,2040,229,2160,261.3C2280,294,2400,343,2520,318.5C2640,294,2760,196,2880,138.8C3000,82,3120,65,3240,122.5C3360,180,3480,310,3600,359.3C3720,408,3840,376,3960,334.8C4080,294,4200,245,4320,220.5C4440,196,4560,196,4680,212.3C4800,229,4920,261,5040,261.3C5160,261,5280,229,5400,220.5C5520,212,5640,229,5760,196C5880,163,6000,82,6120,73.5C6240,65,6360,131,6480,130.7C6600,131,6720,65,6840,57.2C6960,49,7080,98,7200,138.8C7320,180,7440,212,7560,204.2C7680,196,7800,147,7920,147C8040,147,8160,196,8280,187.8C8400,180,8520,114,8580,81.7L8640,49L8640,490L8580,490C8520,490,8400,490,8280,490C8160,490,8040,490,7920,490C7800,490,7680,490,7560,490C7440,490,7320,490,7200,490C7080,490,6960,490,6840,490C6720,490,6600,490,6480,490C6360,490,6240,490,6120,490C6000,490,5880,490,5760,490C5640,490,5520,490,5400,490C5280,490,5160,490,5040,490C4920,490,4800,490,4680,490C4560,490,4440,490,4320,490C4200,490,4080,490,3960,490C3840,490,3720,490,3600,490C3480,490,3360,490,3240,490C3120,490,3000,490,2880,490C2760,490,2640,490,2520,490C2400,490,2280,490,2160,490C2040,490,1920,490,1800,490C1680,490,1560,490,1440,490C1320,490,1200,490,1080,490C960,490,840,490,720,490C600,490,480,490,360,490C240,490,120,490,60,490L0,490Z"></path></svg>