<!-- <svg id="wave" style="transform:rotate(180deg); transition: 0.3s" viewBox="0 0 1440 490" version="1.1" xmlns="http://www.w3.org/2000/svg"><defs><linearGradient id="sw-gradient-0" x1="0" x2="0" y1="1" y2="0"><stop stop-color="rgba(102.715, 62, 243, 1)" offset="0%"></stop><stop stop-color="rgba(159.414, 132.856, 74.15, 1)" offset="100%"></stop></linearGradient></defs><path style="transform:translate(0, 0px); opacity:1" fill="url(#sw-gradient-0)" d="M0,196L60,228.7C120,261,240,327,360,310.3C480,294,600,196,720,147C840,98,960,98,1080,106.2C1200,114,1320,131,1440,130.7C1560,131,1680,114,1800,98C1920,82,2040,65,2160,57.2C2280,49,2400,49,2520,114.3C2640,180,2760,310,2880,367.5C3000,425,3120,408,3240,343C3360,278,3480,163,3600,122.5C3720,82,3840,114,3960,179.7C4080,245,4200,343,4320,359.3C4440,376,4560,310,4680,277.7C4800,245,4920,245,5040,253.2C5160,261,5280,278,5400,253.2C5520,229,5640,163,5760,114.3C5880,65,6000,33,6120,24.5C6240,16,6360,33,6480,98C6600,163,6720,278,6840,285.8C6960,294,7080,196,7200,204.2C7320,212,7440,327,7560,310.3C7680,294,7800,147,7920,114.3C8040,82,8160,163,8280,163.3C8400,163,8520,82,8580,40.8L8640,0L8640,490L8580,490C8520,490,8400,490,8280,490C8160,490,8040,490,7920,490C7800,490,7680,490,7560,490C7440,490,7320,490,7200,490C7080,490,6960,490,6840,490C6720,490,6600,490,6480,490C6360,490,6240,490,6120,490C6000,490,5880,490,5760,490C5640,490,5520,490,5400,490C5280,490,5160,490,5040,490C4920,490,4800,490,4680,490C4560,490,4440,490,4320,490C4200,490,4080,490,3960,490C3840,490,3720,490,3600,490C3480,490,3360,490,3240,490C3120,490,3000,490,2880,490C2760,490,2640,490,2520,490C2400,490,2280,490,2160,490C2040,490,1920,490,1800,490C1680,490,1560,490,1440,490C1320,490,1200,490,1080,490C960,490,840,490,720,490C600,490,480,490,360,490C240,490,120,490,60,490L0,490Z"></path><defs><linearGradient id="sw-gradient-1" x1="0" x2="0" y1="1" y2="0"><stop stop-color="rgba(243, 106, 62, 1)" offset="0%"></stop><stop stop-color="rgba(255, 179, 11, 1)" offset="100%"></stop></linearGradient></defs><path style="transform:translate(0, 50px); opacity:0.9" fill="url(#sw-gradient-1)" d="M0,147L60,147C120,147,240,147,360,122.5C480,98,600,49,720,40.8C840,33,960,65,1080,130.7C1200,196,1320,294,1440,334.8C1560,376,1680,359,1800,359.3C1920,359,2040,376,2160,367.5C2280,359,2400,327,2520,302.2C2640,278,2760,261,2880,253.2C3000,245,3120,245,3240,220.5C3360,196,3480,147,3600,147C3720,147,3840,196,3960,196C4080,196,4200,147,4320,138.8C4440,131,4560,163,4680,155.2C4800,147,4920,98,5040,65.3C5160,33,5280,16,5400,65.3C5520,114,5640,229,5760,245C5880,261,6000,180,6120,138.8C6240,98,6360,98,6480,138.8C6600,180,6720,261,6840,277.7C6960,294,7080,245,7200,245C7320,245,7440,294,7560,326.7C7680,359,7800,376,7920,367.5C8040,359,8160,327,8280,302.2C8400,278,8520,261,8580,253.2L8640,245L8640,490L8580,490C8520,490,8400,490,8280,490C8160,490,8040,490,7920,490C7800,490,7680,490,7560,490C7440,490,7320,490,7200,490C7080,490,6960,490,6840,490C6720,490,6600,490,6480,490C6360,490,6240,490,6120,490C6000,490,5880,490,5760,490C5640,490,5520,490,5400,490C5280,490,5160,490,5040,490C4920,490,4800,490,4680,490C4560,490,4440,490,4320,490C4200,490,4080,490,3960,490C3840,490,3720,490,3600,490C3480,490,3360,490,3240,490C3120,490,3000,490,2880,490C2760,490,2640,490,2520,490C2400,490,2280,490,2160,490C2040,490,1920,490,1800,490C1680,490,1560,490,1440,490C1320,490,1200,490,1080,490C960,490,840,490,720,490C600,490,480,490,360,490C240,490,120,490,60,490L0,490Z"></path><defs><linearGradient id="sw-gradient-2" x1="0" x2="0" y1="1" y2="0"><stop stop-color="rgba(243, 106, 62, 1)" offset="0%"></stop><stop stop-color="rgba(255, 179, 11, 1)" offset="100%"></stop></linearGradient></defs><path style="transform:translate(0, 100px); opacity:0.8" fill="url(#sw-gradient-2)" d="M0,49L60,73.5C120,98,240,147,360,138.8C480,131,600,65,720,57.2C840,49,960,98,1080,114.3C1200,131,1320,114,1440,155.2C1560,196,1680,294,1800,285.8C1920,278,2040,163,2160,106.2C2280,49,2400,49,2520,98C2640,147,2760,245,2880,269.5C3000,294,3120,245,3240,228.7C3360,212,3480,229,3600,220.5C3720,212,3840,180,3960,212.3C4080,245,4200,343,4320,326.7C4440,310,4560,180,4680,147C4800,114,4920,180,5040,212.3C5160,245,5280,245,5400,236.8C5520,229,5640,212,5760,228.7C5880,245,6000,294,6120,310.3C6240,327,6360,310,6480,277.7C6600,245,6720,196,6840,155.2C6960,114,7080,82,7200,130.7C7320,180,7440,310,7560,359.3C7680,408,7800,376,7920,302.2C8040,229,8160,114,8280,98C8400,82,8520,163,8580,204.2L8640,245L8640,490L8580,490C8520,490,8400,490,8280,490C8160,490,8040,490,7920,490C7800,490,7680,490,7560,490C7440,490,7320,490,7200,490C7080,490,6960,490,6840,490C6720,490,6600,490,6480,490C6360,490,6240,490,6120,490C6000,490,5880,490,5760,490C5640,490,5520,490,5400,490C5280,490,5160,490,5040,490C4920,490,4800,490,4680,490C4560,490,4440,490,4320,490C4200,490,4080,490,3960,490C3840,490,3720,490,3600,490C3480,490,3360,490,3240,490C3120,490,3000,490,2880,490C2760,490,2640,490,2520,490C2400,490,2280,490,2160,490C2040,490,1920,490,1800,490C1680,490,1560,490,1440,490C1320,490,1200,490,1080,490C960,490,840,490,720,490C600,490,480,490,360,490C240,490,120,490,60,490L0,490Z"></path><defs><linearGradient id="sw-gradient-3" x1="0" x2="0" y1="1" y2="0"><stop stop-color="rgba(243, 106, 62, 1)" offset="0%"></stop><stop stop-color="rgba(50.779, 11, 255, 1)" offset="100%"></stop></linearGradient></defs><path style="transform:translate(0, 150px); opacity:0.7" fill="url(#sw-gradient-3)" d="M0,196L60,179.7C120,163,240,131,360,171.5C480,212,600,327,720,383.8C840,441,960,441,1080,367.5C1200,294,1320,147,1440,122.5C1560,98,1680,196,1800,204.2C1920,212,2040,131,2160,114.3C2280,98,2400,147,2520,212.3C2640,278,2760,359,2880,375.7C3000,392,3120,343,3240,294C3360,245,3480,196,3600,155.2C3720,114,3840,82,3960,106.2C4080,131,4200,212,4320,261.3C4440,310,4560,327,4680,285.8C4800,245,4920,147,5040,114.3C5160,82,5280,114,5400,155.2C5520,196,5640,245,5760,269.5C5880,294,6000,294,6120,318.5C6240,343,6360,392,6480,343C6600,294,6720,147,6840,106.2C6960,65,7080,131,7200,171.5C7320,212,7440,229,7560,212.3C7680,196,7800,147,7920,122.5C8040,98,8160,98,8280,147C8400,196,8520,294,8580,343L8640,392L8640,490L8580,490C8520,490,8400,490,8280,490C8160,490,8040,490,7920,490C7800,490,7680,490,7560,490C7440,490,7320,490,7200,490C7080,490,6960,490,6840,490C6720,490,6600,490,6480,490C6360,490,6240,490,6120,490C6000,490,5880,490,5760,490C5640,490,5520,490,5400,490C5280,490,5160,490,5040,490C4920,490,4800,490,4680,490C4560,490,4440,490,4320,490C4200,490,4080,490,3960,490C3840,490,3720,490,3600,490C3480,490,3360,490,3240,490C3120,490,3000,490,2880,490C2760,490,2640,490,2520,490C2400,490,2280,490,2160,490C2040,490,1920,490,1800,490C1680,490,1560,490,1440,490C1320,490,1200,490,1080,490C960,490,840,490,720,490C600,490,480,490,360,490C240,490,120,490,60,490L0,490Z"></path></svg> -->


<svg viewBox="0 0 500 500" xmlns="http://www.w3.org/2000/svg" xmlns:xlink="http://www.w3.org/1999/xlink" width="100%" id="blobSvg">
  <defs>
    <clipPath id="shape">
      <path id="blob" d="M383.5,342.5Q357,435,247,440Q137,445,78.5,347.5Q20,250,85.5,164Q151,78,256.5,67Q362,56,386,153Q410,250,383.5,342.5Z" fill="#d1d8e0"></path>
    </clipPath>
  </defs>
  <image x="0" y="0" width="100%" height="100%" clip-path="url(#shape)" xlink:href="https://source.unsplash.com/5PVXkqt2s9k/500x500" preserveAspectRatio="none"></image>
</svg>